<?xml version="1.0" encoding="utf-8"?>
<!-- Generator: Adobe Illustrator 27.3.1, SVG Export Plug-In . SVG Version: 6.00 Build 0)  -->
<svg version="1.1" id="Layer_1" xmlns="http://www.w3.org/2000/svg" xmlns:xlink="http://www.w3.org/1999/xlink" x="0px" y="0px"
	 viewBox="0 0 348.7 142.6" style="enable-background:new 0 0 348.7 142.6;" xml:space="preserve">
<style type="text/css">
	.st0{enable-background:new    ;}
	.st1{fill:#6C652A;}
</style>
<g class="st0">
	<path class="st1" d="M33.7,6.5c2.4,0,4.5,0.3,6.4,0.8c1.9,0.5,3.5,1.3,4.8,2.3c1.3,1,2.3,2.2,3,3.7c0.7,1.4,1.1,3.1,1.1,4.9
		c0,1.8-0.4,3.5-1.1,4.9c-0.7,1.4-1.7,2.7-3,3.7c-1.3,1-2.9,1.8-4.8,2.3c-1.9,0.5-4,0.8-6.4,0.8H23.4v10h-6.9V6.5H33.7z M23.4,10.1
		v16.2h10.3c2.5,0,4.5-0.7,5.8-2c1.4-1.3,2.1-3.4,2.1-6.1c0-2.8-0.7-4.8-2.1-6.1c-1.4-1.3-3.3-2-5.8-2H23.4z"/>
	<path class="st1" d="M72.1,18.5h-5.7c-2.2,0-3.8,0.6-5,1.7c-1.1,1.2-1.7,2.9-1.7,5.2v14.6H53V25.4c0-3.2,1-5.8,3.1-7.6
		c2.1-1.8,5-2.7,8.9-2.7h7.2V18.5z"/>
	<path class="st1" d="M87.8,14.2c2.1,0,4.1,0.3,5.9,0.9c1.8,0.6,3.3,1.4,4.6,2.6c1.3,1.1,2.3,2.5,3,4.2c0.7,1.7,1.1,3.6,1.1,5.7
		c0,2.2-0.4,4.1-1.1,5.7c-0.7,1.7-1.7,3-3,4.2c-1.3,1.1-2.8,2-4.6,2.6c-1.8,0.6-3.8,0.9-5.9,0.9c-2.2,0-4.1-0.3-5.9-0.9
		c-1.8-0.6-3.3-1.4-4.6-2.6c-1.3-1.1-2.3-2.5-3-4.2c-0.7-1.7-1.1-3.6-1.1-5.7c0-2.1,0.4-4,1.1-5.7c0.7-1.7,1.7-3.1,3-4.2
		c1.3-1.1,2.8-2,4.6-2.6C83.7,14.5,85.7,14.2,87.8,14.2z M87.8,37.8c1,0,2-0.2,2.9-0.6c0.9-0.4,1.7-1,2.3-1.8
		c0.7-0.8,1.2-1.9,1.6-3.2c0.4-1.3,0.6-2.9,0.6-4.7c0-1.8-0.2-3.4-0.6-4.7c-0.4-1.3-0.9-2.4-1.6-3.2c-0.7-0.8-1.4-1.4-2.3-1.8
		c-0.9-0.4-1.8-0.6-2.9-0.6c-1,0-2,0.2-2.9,0.6c-0.9,0.4-1.7,1-2.3,1.8c-0.7,0.8-1.2,1.9-1.6,3.2c-0.4,1.3-0.6,2.9-0.6,4.7
		c0,1.8,0.2,3.4,0.6,4.7c0.4,1.3,0.9,2.4,1.6,3.2c0.7,0.8,1.4,1.4,2.3,1.8C85.9,37.6,86.8,37.8,87.8,37.8z"/>
	<path class="st1" d="M109.1,15.6c0-3.1,1-5.6,2.9-7.3c1.9-1.8,4.7-2.7,8.3-2.7c1.2,0,2.4,0.2,3.7,0.5c1.2,0.3,2.3,0.7,3.3,1.2
		l-1.4,3.1c-0.6-0.3-1.4-0.7-2.2-1c-0.9-0.3-1.8-0.5-2.8-0.5c-0.7,0-1.3,0.1-1.9,0.4c-0.6,0.3-1.1,0.6-1.6,1.2
		c-0.5,0.5-0.8,1.2-1.1,2.1c-0.3,0.9-0.4,1.9-0.4,3.1v0.5h7.4v3.3h-7.4v20.5h-6.7V19.4h-4.5v-3.3h4.5V15.6z"/>
	<path class="st1" d="M141.3,37.5c1.6,0,3-0.3,4.4-0.8c1.4-0.5,2.7-1.3,4-2.3l1.9,2.9c-0.6,0.5-1.3,1-2.1,1.5
		c-0.8,0.4-1.7,0.8-2.6,1.1c-0.9,0.3-1.9,0.5-2.9,0.7c-1,0.2-2,0.3-3.1,0.3c-2.3,0-4.3-0.3-6.2-0.9c-1.9-0.6-3.4-1.4-4.7-2.6
		c-1.3-1.1-2.3-2.5-3-4.2c-0.7-1.7-1.1-3.6-1.1-5.7c0-2.1,0.3-4,1-5.7c0.7-1.7,1.6-3.1,2.9-4.2c1.2-1.1,2.7-2,4.4-2.6
		c1.7-0.6,3.5-0.9,5.6-0.9c1.9,0,3.7,0.3,5.4,0.9c1.7,0.6,3.2,1.4,4.4,2.5c1.2,1.1,2.2,2.4,3,4c0.7,1.6,1.1,3.3,1.1,5.3v3.3h-20.4
		c0.4,2.6,1.3,4.5,2.7,5.7C137.3,37,139.1,37.5,141.3,37.5z M139.6,17.3c-0.9,0-1.8,0.2-2.6,0.5c-0.8,0.4-1.5,0.9-2.1,1.7
		c-0.6,0.8-1.1,1.8-1.4,3c-0.4,1.2-0.6,2.7-0.6,4.4h13.4c0-1.7-0.2-3.1-0.6-4.3c-0.4-1.2-0.9-2.2-1.5-3c-0.6-0.8-1.3-1.4-2.1-1.7
		C141.3,17.4,140.4,17.3,139.6,17.3z"/>
	<path class="st1" d="M164.7,20.4c0,0.7,0.3,1.4,1,2c0.7,0.6,1.8,1.1,3.3,1.6l7.4,2.1c2.3,0.7,4.1,1.6,5.3,2.7
		c1.2,1.1,1.9,2.6,1.9,4.4c0,1.1-0.2,2.2-0.7,3.1c-0.5,0.9-1.3,1.7-2.3,2.4c-1.1,0.7-2.5,1.2-4.2,1.6c-1.7,0.4-3.8,0.5-6.3,0.5
		c-1.3,0-2.6-0.1-3.8-0.3c-1.3-0.2-2.5-0.5-3.6-0.8c-1.1-0.3-2.2-0.7-3.1-1.1c-0.9-0.4-1.7-0.9-2.4-1.4l1.9-2.9
		c1.3,0.8,2.9,1.6,4.7,2.2c1.8,0.6,3.9,0.9,6.3,0.9s4.1-0.3,5-1c1-0.6,1.4-1.4,1.4-2.4c0-0.7-0.3-1.4-1-2c-0.7-0.6-1.8-1.1-3.5-1.6
		l-7.4-2.1c-2-0.6-3.7-1.5-5-2.6c-1.3-1.1-1.9-2.6-1.9-4.6c0-1,0.2-2,0.7-2.8c0.5-0.9,1.2-1.6,2.2-2.3c1-0.6,2.2-1.1,3.8-1.5
		c1.5-0.4,3.4-0.5,5.5-0.5c2.6,0,5,0.4,7.2,1.1c2.1,0.7,3.9,1.6,5.2,2.5l-1.9,2.9c-1.3-0.8-2.8-1.6-4.4-2.2
		c-1.7-0.6-3.7-0.9-6.1-0.9c-1.7,0-2.9,0.3-3.8,0.8C165.1,18.9,164.7,19.5,164.7,20.4z"/>
	<path class="st1" d="M194,20.4c0,0.7,0.3,1.4,1,2c0.7,0.6,1.8,1.1,3.3,1.6l7.4,2.1c2.3,0.7,4.1,1.6,5.3,2.7
		c1.2,1.1,1.9,2.6,1.9,4.4c0,1.1-0.2,2.2-0.7,3.1c-0.5,0.9-1.3,1.7-2.3,2.4c-1.1,0.7-2.5,1.2-4.2,1.6c-1.7,0.4-3.8,0.5-6.3,0.5
		c-1.3,0-2.6-0.1-3.8-0.3c-1.3-0.2-2.5-0.5-3.6-0.8c-1.1-0.3-2.2-0.7-3.1-1.1c-0.9-0.4-1.7-0.9-2.4-1.4l1.9-2.9
		c1.3,0.8,2.9,1.6,4.7,2.2c1.8,0.6,3.9,0.9,6.3,0.9c2.4,0,4.1-0.3,5-1c1-0.6,1.4-1.4,1.4-2.4c0-0.7-0.3-1.4-1-2
		c-0.7-0.6-1.8-1.1-3.5-1.6l-7.4-2.1c-2-0.6-3.7-1.5-5-2.6c-1.3-1.1-1.9-2.6-1.9-4.6c0-1,0.2-2,0.7-2.8c0.5-0.9,1.2-1.6,2.2-2.3
		c1-0.6,2.2-1.1,3.8-1.5c1.5-0.4,3.4-0.5,5.5-0.5c2.6,0,5,0.4,7.2,1.1c2.1,0.7,3.9,1.6,5.2,2.5l-1.9,2.9c-1.3-0.8-2.8-1.6-4.4-2.2
		c-1.7-0.6-3.7-0.9-6.1-0.9c-1.7,0-2.9,0.3-3.8,0.8C194.4,18.9,194,19.5,194,20.4z"/>
	<path class="st1" d="M224.8,9.1c0,1-0.3,1.8-1,2.5c-0.7,0.7-1.5,1.1-2.6,1.1c-1.1,0-1.9-0.4-2.6-1.1c-0.7-0.7-1-1.6-1-2.5
		c0-1,0.3-1.8,1-2.5c0.7-0.7,1.5-1.1,2.6-1.1c1.1,0,1.9,0.4,2.6,1.1C224.5,7.4,224.8,8.2,224.8,9.1z M224.6,39.9h-6.7V15.6h6.7V39.9
		z"/>
	<path class="st1" d="M244.8,14.2c2.1,0,4.1,0.3,5.9,0.9c1.8,0.6,3.3,1.4,4.6,2.6c1.3,1.1,2.3,2.5,3,4.2c0.7,1.7,1.1,3.6,1.1,5.7
		c0,2.2-0.4,4.1-1.1,5.7c-0.7,1.7-1.7,3-3,4.2c-1.3,1.1-2.8,2-4.6,2.6c-1.8,0.6-3.8,0.9-5.9,0.9c-2.2,0-4.1-0.3-5.9-0.9
		c-1.8-0.6-3.3-1.4-4.6-2.6c-1.3-1.1-2.3-2.5-3-4.2c-0.7-1.7-1.1-3.6-1.1-5.7c0-2.1,0.4-4,1.1-5.7c0.7-1.7,1.7-3.1,3-4.2
		c1.3-1.1,2.8-2,4.6-2.6C240.7,14.5,242.7,14.2,244.8,14.2z M244.8,37.8c1,0,2-0.2,2.9-0.6c0.9-0.4,1.7-1,2.3-1.8
		c0.7-0.8,1.2-1.9,1.6-3.2c0.4-1.3,0.6-2.9,0.6-4.7c0-1.8-0.2-3.4-0.6-4.7c-0.4-1.3-0.9-2.4-1.6-3.2c-0.7-0.8-1.4-1.4-2.3-1.8
		c-0.9-0.4-1.8-0.6-2.9-0.6c-1,0-2,0.2-2.9,0.6c-0.9,0.4-1.7,1-2.3,1.8c-0.7,0.8-1.2,1.9-1.6,3.2c-0.4,1.3-0.6,2.9-0.6,4.7
		c0,1.8,0.2,3.4,0.6,4.7c0.4,1.3,0.9,2.4,1.6,3.2c0.7,0.8,1.4,1.4,2.3,1.8C242.9,37.6,243.8,37.8,244.8,37.8z"/>
	<path class="st1" d="M291.1,39.9h-6.7v-15c0-2.3-0.6-3.9-1.7-4.9c-1.1-1-2.8-1.5-5-1.5h-6.2v21.5h-6.7V15.1h12.9
		c4.5,0,7.9,0.8,10.1,2.5c2.2,1.6,3.3,4.1,3.3,7.3V39.9z"/>
	<path class="st1" d="M315.2,24.2c0-2.3-0.6-4-1.8-5.1c-1.2-1.1-2.7-1.6-4.7-1.6c-1.4,0-2.8,0.2-4.2,0.6c-1.4,0.4-2.6,1-3.7,1.7
		l-1.7-2.9c0.7-0.5,1.5-0.9,2.3-1.2c0.8-0.3,1.7-0.6,2.6-0.9c0.9-0.2,1.8-0.4,2.6-0.5c0.9-0.1,1.7-0.2,2.5-0.2c2,0,3.8,0.2,5.4,0.7
		c1.6,0.5,2.9,1.2,4,2.1c1.1,0.9,1.9,1.9,2.5,3.2c0.6,1.2,0.8,2.6,0.8,4.1v15.7h-13.4c-4.3,0-7.5-0.7-9.6-2
		c-2.1-1.3-3.1-3.3-3.1-5.9c0-2.6,1-4.6,3.1-5.9c2.1-1.3,5.2-2,9.6-2H315.2z M303.1,32.1c0,3,1.8,4.5,5.5,4.5h6.7v-9.1h-6.7
		C304.9,27.5,303.1,29,303.1,32.1z"/>
	<path class="st1" d="M335,39.9h-6.7V6.5h6.7V39.9z"/>
</g>
<g class="st0">
	<path class="st1" d="M38.2,54.6L51.8,88h-6.9l-3.1-8.1H23.6L20.5,88h-6.9l13.6-33.4H38.2z M25.3,76.3h14.8l-7.2-17.7h-0.5
		L25.3,76.3z"/>
	<path class="st1" d="M54.7,63.2h6.7v15c0,2.3,0.6,3.9,1.7,4.9c1.1,1,2.8,1.5,5,1.5h6.2V63.2h6.7V88H68c-4.6,0-7.9-0.8-10.1-2.5
		c-2.2-1.6-3.3-4.1-3.3-7.3V63.2z"/>
	<path class="st1" d="M101,88c-2.2,0-4.2-0.3-6-0.9c-1.8-0.6-3.3-1.4-4.6-2.5c-1.3-1.1-2.3-2.4-2.9-3.9c-0.7-1.5-1-3.2-1-5.2
		s0.3-3.6,1-5.2c0.7-1.5,1.7-2.8,2.9-3.9c1.3-1.1,2.8-1.9,4.6-2.5c1.8-0.6,3.8-0.9,6-0.9h6v-8.6h6.7V88H101z M106.9,84.6V66.5h-6
		c-1.1,0-2.1,0.2-3,0.5c-0.9,0.3-1.7,0.9-2.3,1.6c-0.7,0.7-1.2,1.7-1.5,2.8c-0.4,1.1-0.5,2.5-0.5,4.2s0.2,3,0.5,4.2
		c0.4,1.1,0.9,2.1,1.5,2.8c0.7,0.7,1.4,1.3,2.3,1.6c0.9,0.3,1.9,0.5,3,0.5H106.9z"/>
	<path class="st1" d="M127.4,57.2c0,1-0.3,1.8-1,2.5c-0.7,0.7-1.5,1.1-2.6,1.1c-1.1,0-1.9-0.4-2.6-1.1c-0.7-0.7-1-1.6-1-2.5
		c0-1,0.3-1.8,1-2.5c0.7-0.7,1.5-1.1,2.6-1.1c1.1,0,1.9,0.4,2.6,1.1C127.1,55.4,127.4,56.2,127.4,57.2z M127.2,88h-6.7V63.6h6.7V88z
		"/>
	<path class="st1" d="M147.5,62.2c2.1,0,4.1,0.3,5.9,0.9c1.8,0.6,3.3,1.4,4.6,2.6c1.3,1.1,2.3,2.5,3,4.2c0.7,1.7,1.1,3.6,1.1,5.7
		c0,2.2-0.4,4.1-1.1,5.7c-0.7,1.7-1.7,3-3,4.2c-1.3,1.1-2.8,2-4.6,2.6c-1.8,0.6-3.8,0.9-5.9,0.9c-2.2,0-4.1-0.3-5.9-0.9
		c-1.8-0.6-3.3-1.4-4.6-2.6c-1.3-1.1-2.3-2.5-3-4.2c-0.7-1.7-1.1-3.6-1.1-5.7c0-2.1,0.4-4,1.1-5.7c0.7-1.7,1.7-3.1,3-4.2
		c1.3-1.1,2.8-2,4.6-2.6C143.3,62.5,145.3,62.2,147.5,62.2z M147.5,85.8c1,0,2-0.2,2.9-0.6c0.9-0.4,1.7-1,2.3-1.8
		c0.7-0.8,1.2-1.9,1.6-3.2c0.4-1.3,0.6-2.9,0.6-4.7c0-1.8-0.2-3.4-0.6-4.7c-0.4-1.3-0.9-2.4-1.6-3.2c-0.7-0.8-1.4-1.4-2.3-1.8
		c-0.9-0.4-1.8-0.6-2.9-0.6c-1,0-2,0.2-2.9,0.6c-0.9,0.4-1.7,1-2.3,1.8c-0.7,0.8-1.2,1.9-1.6,3.2c-0.4,1.3-0.6,2.9-0.6,4.7
		c0,1.8,0.2,3.4,0.6,4.7c0.4,1.3,0.9,2.4,1.6,3.2c0.7,0.8,1.4,1.4,2.3,1.8C145.5,85.6,146.5,85.8,147.5,85.8z"/>
	<path class="st1" d="M203.3,85.4c2.2,0,4.2-0.4,6.2-1.1c2-0.7,3.9-2,5.7-3.7l2.4,2.9c-1.8,1.7-4,3-6.6,4c-2.6,1-5.3,1.5-8.2,1.5
		c-3,0-5.7-0.4-8.1-1.1c-2.4-0.8-4.5-1.9-6.2-3.4c-1.7-1.5-3-3.3-3.9-5.5c-0.9-2.2-1.4-4.7-1.4-7.6s0.5-5.4,1.4-7.6
		c0.9-2.2,2.2-4,3.9-5.5c1.7-1.5,3.7-2.6,6-3.4c2.4-0.8,5-1.1,7.8-1.1c2.9,0,5.6,0.5,8.2,1.5c2.6,1,4.8,2.3,6.6,4l-2.4,2.9
		c-1.8-1.7-3.7-2.9-5.7-3.7c-2-0.7-4.1-1.1-6.2-1.1c-1.7,0-3.3,0.3-4.8,0.8c-1.5,0.6-2.8,1.4-3.9,2.6c-1.1,1.1-1.9,2.6-2.6,4.4
		c-0.6,1.8-0.9,3.9-0.9,6.3c0,2.5,0.3,4.6,0.9,6.3c0.6,1.8,1.5,3.2,2.6,4.4c1.1,1.1,2.5,2,4,2.6C199.8,85.1,201.5,85.4,203.3,85.4z"
		/>
	<path class="st1" d="M238.6,72.2c0-2.3-0.6-4-1.8-5.1c-1.2-1.1-2.7-1.6-4.7-1.6c-1.4,0-2.8,0.2-4.2,0.6c-1.4,0.4-2.6,1-3.7,1.7
		l-1.7-2.9c0.7-0.5,1.5-0.9,2.3-1.2c0.8-0.3,1.7-0.6,2.6-0.9c0.9-0.2,1.8-0.4,2.6-0.5c0.9-0.1,1.7-0.2,2.5-0.2c2,0,3.8,0.2,5.4,0.7
		c1.6,0.5,2.9,1.2,4,2.1c1.1,0.9,1.9,1.9,2.5,3.2c0.6,1.2,0.8,2.6,0.8,4.1V88H232c-4.3,0-7.5-0.7-9.6-2c-2.1-1.3-3.1-3.3-3.1-5.9
		c0-2.6,1-4.6,3.1-5.9c2.1-1.3,5.2-2,9.6-2H238.6z M226.5,80.1c0,3,1.8,4.5,5.5,4.5h6.7v-9.1H232C228.3,75.6,226.5,77.1,226.5,80.1z
		"/>
	<path class="st1" d="M251.8,88V54.6h6.7v8.6h6c2.2,0,4.2,0.3,6,0.9c1.8,0.6,3.3,1.4,4.6,2.5c1.3,1.1,2.3,2.4,2.9,3.9
		c0.7,1.5,1,3.2,1,5.2s-0.3,3.6-1,5.2c-0.7,1.5-1.7,2.8-2.9,3.9c-1.3,1.1-2.8,1.9-4.6,2.5c-1.8,0.6-3.8,0.9-6,0.9H251.8z
		 M264.4,84.6c1.1,0,2.1-0.2,3-0.5c0.9-0.3,1.7-0.9,2.3-1.6c0.7-0.7,1.2-1.7,1.5-2.8c0.4-1.1,0.5-2.5,0.5-4.2s-0.2-3-0.5-4.2
		c-0.4-1.1-0.9-2.1-1.5-2.8c-0.7-0.7-1.4-1.3-2.3-1.6c-0.9-0.3-1.9-0.5-3-0.5h-6v18.1H264.4z"/>
	<path class="st1" d="M291.1,88h-6.7V54.6h6.7V88z"/>
	<path class="st1" d="M312.1,85.6c1.6,0,3-0.3,4.4-0.8c1.4-0.5,2.7-1.3,4-2.3l1.9,2.9c-0.6,0.5-1.3,1-2.1,1.5
		c-0.8,0.4-1.7,0.8-2.6,1.1c-0.9,0.3-1.9,0.5-2.9,0.7c-1,0.2-2,0.3-3.1,0.3c-2.3,0-4.3-0.3-6.2-0.9c-1.9-0.6-3.4-1.4-4.7-2.6
		c-1.3-1.1-2.3-2.5-3-4.2c-0.7-1.7-1.1-3.6-1.1-5.7c0-2.1,0.3-4,1-5.7c0.7-1.7,1.6-3.1,2.9-4.2c1.2-1.1,2.7-2,4.4-2.6
		c1.7-0.6,3.5-0.9,5.6-0.9c1.9,0,3.7,0.3,5.4,0.9c1.7,0.6,3.2,1.4,4.4,2.5c1.2,1.1,2.2,2.4,3,4c0.7,1.6,1.1,3.3,1.1,5.3v3.3h-20.4
		c0.4,2.6,1.3,4.5,2.7,5.7C308.1,85,309.9,85.6,312.1,85.6z M310.5,65.3c-0.9,0-1.8,0.2-2.6,0.5c-0.8,0.4-1.5,0.9-2.1,1.7
		c-0.6,0.8-1.1,1.8-1.4,3c-0.4,1.2-0.6,2.7-0.6,4.4h13.4c0-1.7-0.2-3.1-0.6-4.3c-0.4-1.2-0.9-2.2-1.5-3c-0.6-0.8-1.3-1.4-2.1-1.7
		C312.1,65.5,311.3,65.3,310.5,65.3z"/>
</g>
<g class="st0">
	<path class="st1" d="M47.5,127.2c0,1.4-0.3,2.6-0.9,3.8c-0.6,1.2-1.5,2.2-2.8,3.1c-1.3,0.9-3,1.6-5,2.1c-2.1,0.5-4.6,0.8-7.6,0.8
		c-1.7,0-3.3-0.1-4.9-0.4c-1.6-0.3-3.1-0.6-4.6-1.1c-1.4-0.5-2.8-1.1-4-1.7c-1.2-0.7-2.3-1.4-3.2-2.3l2.4-2.9
		c1.8,1.6,3.9,2.7,6.3,3.6c2.4,0.8,5.1,1.2,8,1.2c3.2,0,5.5-0.4,6.8-1.3c1.3-0.9,2-2.1,2-3.7c0-1.2-0.5-2.2-1.6-3.1
		c-1-0.8-2.8-1.6-5.3-2.4l-9.1-2.9c-3-1-5.2-2.2-6.8-3.7c-1.5-1.5-2.3-3.4-2.3-5.7c0-1.2,0.3-2.3,0.8-3.4c0.6-1.1,1.4-2.1,2.6-2.9
		c1.2-0.8,2.7-1.5,4.5-2c1.8-0.5,4-0.7,6.6-0.7c1.6,0,3.1,0.1,4.7,0.4c1.5,0.3,3,0.6,4.4,1.1c1.4,0.5,2.7,1.1,4,1.7
		c1.2,0.7,2.3,1.4,3.2,2.3l-2.4,2.9c-1.8-1.6-3.9-2.7-6.1-3.6c-2.3-0.8-4.8-1.2-7.7-1.2c-2.4,0-4.2,0.4-5.4,1.2
		c-1.2,0.8-1.8,1.8-1.8,3.1c0,0.7,0.1,1.2,0.3,1.7c0.2,0.5,0.6,1,1.1,1.4c0.5,0.4,1.2,0.8,2.1,1.2c0.9,0.4,1.9,0.8,3.2,1.2l9,2.9
		c2.9,0.9,5.2,2.1,6.8,3.6C46.7,123,47.5,124.9,47.5,127.2z"/>
	<path class="st1" d="M65.6,110.3c2.1,0,4.1,0.3,5.9,0.9c1.8,0.6,3.3,1.4,4.6,2.6c1.3,1.1,2.3,2.5,3,4.2c0.7,1.7,1.1,3.6,1.1,5.7
		c0,2.2-0.4,4.1-1.1,5.7c-0.7,1.7-1.7,3-3,4.2c-1.3,1.1-2.8,2-4.6,2.6c-1.8,0.6-3.8,0.9-5.9,0.9c-2.2,0-4.1-0.3-5.9-0.9
		c-1.8-0.6-3.3-1.4-4.6-2.6c-1.3-1.1-2.3-2.5-3-4.2c-0.7-1.7-1.1-3.6-1.1-5.7c0-2.1,0.4-4,1.1-5.7c0.7-1.7,1.7-3.1,3-4.2
		c1.3-1.1,2.8-2,4.6-2.6C61.5,110.6,63.5,110.3,65.6,110.3z M65.6,133.9c1,0,2-0.2,2.9-0.6c0.9-0.4,1.7-1,2.3-1.8
		c0.7-0.8,1.2-1.9,1.6-3.2c0.4-1.3,0.6-2.9,0.6-4.7c0-1.8-0.2-3.4-0.6-4.7c-0.4-1.3-0.9-2.4-1.6-3.2c-0.7-0.8-1.4-1.4-2.3-1.8
		c-0.9-0.4-1.8-0.6-2.9-0.6c-1,0-2,0.2-2.9,0.6c-0.9,0.4-1.7,1-2.3,1.8c-0.7,0.8-1.2,1.9-1.6,3.2c-0.4,1.3-0.6,2.9-0.6,4.7
		c0,1.8,0.2,3.4,0.6,4.7c0.4,1.3,0.9,2.4,1.6,3.2c0.7,0.8,1.4,1.4,2.3,1.8C63.7,133.7,64.6,133.9,65.6,133.9z"/>
	<path class="st1" d="M92.4,136h-6.7v-33.4h6.7V136z"/>
	<path class="st1" d="M99,111.2h6.7v15c0,2.3,0.6,3.9,1.7,4.9c1.1,1,2.8,1.5,5,1.5h6.2v-21.5h6.7V136h-12.9c-4.6,0-7.9-0.8-10.1-2.5
		c-2.2-1.6-3.3-4.1-3.3-7.3V111.2z"/>
	<path class="st1" d="M134.1,114.6h-4.5v-3.3h4.5v-7.6h6.7v7.6h7.4v3.3h-7.4V127c0,1.2,0.1,2.2,0.4,3.1c0.3,0.8,0.6,1.5,1.1,2.1
		c0.5,0.5,1,0.9,1.6,1.2c0.6,0.3,1.2,0.4,1.9,0.4c1,0,1.9-0.2,2.8-0.5c0.9-0.3,1.6-0.6,2.2-1l1.4,3.1c-1,0.5-2,0.9-3.3,1.2
		c-1.2,0.3-2.4,0.5-3.7,0.5c-3.6,0-6.4-0.9-8.3-2.7c-1.9-1.8-2.9-4.2-2.9-7.3V114.6z"/>
	<path class="st1" d="M163.2,105.2c0,1-0.3,1.8-1,2.5c-0.7,0.7-1.5,1.1-2.6,1.1c-1.1,0-1.9-0.4-2.6-1.1c-0.7-0.7-1-1.6-1-2.5
		c0-1,0.3-1.8,1-2.5c0.7-0.7,1.5-1.1,2.6-1.1c1.1,0,1.9,0.4,2.6,1.1C162.9,103.5,163.2,104.3,163.2,105.2z M163,136h-6.7v-24.3h6.7
		V136z"/>
	<path class="st1" d="M183.3,110.3c2.1,0,4.1,0.3,5.9,0.9c1.8,0.6,3.3,1.4,4.6,2.6c1.3,1.1,2.3,2.5,3,4.2c0.7,1.7,1.1,3.6,1.1,5.7
		c0,2.2-0.4,4.1-1.1,5.7c-0.7,1.7-1.7,3-3,4.2c-1.3,1.1-2.8,2-4.6,2.6c-1.8,0.6-3.8,0.9-5.9,0.9c-2.2,0-4.1-0.3-5.9-0.9
		c-1.8-0.6-3.3-1.4-4.6-2.6c-1.3-1.1-2.3-2.5-3-4.2c-0.7-1.7-1.1-3.6-1.1-5.7c0-2.1,0.4-4,1.1-5.7c0.7-1.7,1.7-3.1,3-4.2
		c1.3-1.1,2.8-2,4.6-2.6C179.1,110.6,181.1,110.3,183.3,110.3z M183.3,133.9c1,0,2-0.2,2.9-0.6c0.9-0.4,1.7-1,2.3-1.8
		c0.7-0.8,1.2-1.9,1.6-3.2c0.4-1.3,0.6-2.9,0.6-4.7c0-1.8-0.2-3.4-0.6-4.7c-0.4-1.3-0.9-2.4-1.6-3.2c-0.7-0.8-1.4-1.4-2.3-1.8
		c-0.9-0.4-1.8-0.6-2.9-0.6c-1,0-2,0.2-2.9,0.6c-0.9,0.4-1.7,1-2.3,1.8c-0.7,0.8-1.2,1.9-1.6,3.2c-0.4,1.3-0.6,2.9-0.6,4.7
		c0,1.8,0.2,3.4,0.6,4.7c0.4,1.3,0.9,2.4,1.6,3.2c0.7,0.8,1.4,1.4,2.3,1.8C181.3,133.7,182.3,133.9,183.3,133.9z"/>
	<path class="st1" d="M229.6,136h-6.7v-15c0-2.3-0.6-3.9-1.7-4.9c-1.1-1-2.8-1.5-5-1.5H210V136h-6.7v-24.8h12.9
		c4.5,0,7.9,0.8,10.1,2.5c2.2,1.6,3.3,4.1,3.3,7.3V136z"/>
	<path class="st1" d="M241.7,116.5c0,0.7,0.3,1.4,1,2c0.7,0.6,1.8,1.1,3.3,1.6l7.4,2.1c2.3,0.7,4.1,1.6,5.3,2.7
		c1.2,1.1,1.9,2.6,1.9,4.4c0,1.1-0.2,2.2-0.7,3.1c-0.5,0.9-1.3,1.7-2.3,2.4c-1.1,0.7-2.5,1.2-4.2,1.6c-1.7,0.4-3.8,0.5-6.3,0.5
		c-1.3,0-2.6-0.1-3.8-0.3c-1.3-0.2-2.5-0.5-3.6-0.8c-1.1-0.3-2.2-0.7-3.1-1.1c-0.9-0.4-1.7-0.9-2.4-1.4l1.9-2.9
		c1.3,0.8,2.9,1.6,4.7,2.2c1.8,0.6,3.9,0.9,6.3,0.9s4.1-0.3,5-1c1-0.6,1.4-1.4,1.4-2.4c0-0.7-0.3-1.4-1-2c-0.7-0.6-1.8-1.1-3.5-1.6
		l-7.4-2.1c-2-0.6-3.7-1.5-5-2.6c-1.3-1.1-1.9-2.6-1.9-4.6c0-1,0.2-2,0.7-2.8c0.5-0.9,1.2-1.6,2.2-2.3c1-0.6,2.2-1.1,3.8-1.5
		c1.5-0.4,3.4-0.5,5.5-0.5c2.6,0,5,0.4,7.2,1.1c2.1,0.7,3.9,1.6,5.2,2.5l-1.9,2.9c-1.3-0.8-2.8-1.6-4.4-2.2
		c-1.7-0.6-3.7-0.9-6.1-0.9c-1.7,0-2.9,0.3-3.8,0.8C242.2,115,241.7,115.6,241.7,116.5z"/>
</g>
</svg>
